<?xml version="1.0" encoding="UTF-8"?>
<svg width="20px" height="24px" viewBox="0 0 20 24" version="1.1" xmlns="http://www.w3.org/2000/svg" xmlns:xlink="http://www.w3.org/1999/xlink">
    <title>money-bag-dollar</title>
    <g id="final" stroke="none" stroke-width="1" fill="none" fill-rule="evenodd" stroke-linecap="round" stroke-linejoin="round">
        <g id="startqw-copy-8" transform="translate(-978.000000, -685.000000)" stroke="#000000" stroke-width="1.5">
            <g id="Group-10" transform="translate(209.000000, 657.000000)">
                <g id="Group-4-Copy-15" transform="translate(738.000000, 0.000000)">
                    <g id="Group-9-Copy-2" transform="translate(1.000000, 0.000000)">
                        <g id="money-bag-dollar" transform="translate(31.000000, 28.000000)">
                            <path d="M10.574,12.75 L8.541,12.75 C7.89837813,12.7504488 7.34626679,13.2063931 7.22432136,13.8373387 C7.10237594,14.4682843 7.44482665,15.0971242 8.041,15.337 L10.105,16.163 C10.7011734,16.4028758 11.0436241,17.0317157 10.9216786,17.6626613 C10.7997332,18.2936069 10.2476219,18.7495512 9.605,18.75 L7.574,18.75" id="Path"></path>
                            <line x1="9.074" y1="12.75" x2="9.074" y2="12" id="Path"></line>
                            <line x1="9.074" y1="19.5" x2="9.074" y2="18.75" id="Path"></line>
                            <line x1="3.824" y1="8.25" x2="14.324" y2="8.25" id="Path"></line>
                            <path d="M12.63,5.036 L14.068,2.16 C14.2120877,1.87132904 14.1554156,1.52285665 13.9272795,1.2947205 C13.6991434,1.06658436 13.350671,1.00991225 13.062,1.154 L11.162,2.102 C10.8237521,2.27084776 10.4127112,2.16155115 10.203,1.847 L9.7,1.084 C9.56089511,0.875383654 9.3267408,0.750081723 9.076,0.750081723 C8.8252592,0.750081723 8.59110489,0.875383654 8.452,1.084 L7.943,1.847 C7.7335663,2.16193846 7.32219945,2.27132172 6.984,2.102 L5.087,1.154 C4.79827342,1.01060274 4.45023778,1.06747119 4.22217083,1.29531165 C3.99410388,1.52315212 3.93688967,1.87113109 4.08,2.16 L5.49,4.98" id="Path"></path>
                            <path d="M4.237,10.5 L1.477,13.7 C0.0991925099,15.4909952 -0.141425219,17.9092209 0.856447234,19.9366005 C1.85431969,21.9639801 3.91735025,23.2483544 6.177,23.249 L11.967,23.249 C14.2266498,23.2483544 16.2896803,21.9639801 17.2875528,19.9366005 C18.2854252,17.9092209 18.0448075,15.4909952 16.667,13.7 L13.907,10.5" id="Path"></path>
                        </g>
                    </g>
                </g>
            </g>
        </g>
    </g>
</svg>